<svg width="12" height="12" viewBox="0 0 12 12" fill="none" xmlns="http://www.w3.org/2000/svg">
<g clip-path="url(#clip0)">
<path d="M6.38638 11.892C6.26398 11.8896 6.14158 11.8944 6.02158 11.8752C5.95438 11.8656 5.90638 11.8296 5.87518 11.772C5.81998 11.6688 5.79598 11.556 5.77438 11.4432C5.69998 11.0784 5.64478 10.7112 5.58958 10.3416C5.48158 9.62403 5.36398 8.90883 5.18398 8.20563C5.11678 7.93923 5.05198 7.67043 4.96318 7.41123C4.85758 7.09923 4.71358 6.80163 4.52638 6.53043C4.44958 6.42003 4.34878 6.35523 4.21678 6.32643C4.03198 6.28563 3.84478 6.25923 3.65998 6.21843C3.09838 6.09123 2.59198 5.85363 2.16478 5.46243C1.94878 5.26563 1.75678 5.04483 1.62238 4.78323C1.53118 4.60563 1.48318 4.41123 1.44958 4.21683C1.39438 3.90483 1.37038 3.59043 1.34638 3.27603C1.32238 2.96643 1.26718 2.66403 1.16878 2.37123C1.13758 2.27763 1.11358 2.17923 1.09678 2.08323C1.08238 2.01363 1.10638 1.98963 1.17598 1.99683C1.34158 2.01843 1.49998 2.06643 1.65838 2.10723C2.09998 2.22243 2.54638 2.31603 2.99518 2.40723C3.31438 2.47203 3.63358 2.53203 3.94558 2.62803C4.17598 2.70003 4.38238 2.82003 4.57918 2.95923C5.09038 3.32163 5.41918 3.81363 5.62798 4.39443C5.75038 4.73283 5.81278 5.08083 5.80078 5.44323C5.79598 5.57043 5.79118 5.69763 5.75518 5.82003C5.74798 5.84643 5.74318 5.88483 5.70958 5.88963C5.68078 5.89203 5.67358 5.85603 5.66158 5.83203C5.59678 5.69763 5.54638 5.55843 5.47198 5.43123C5.26318 5.06883 5.00878 4.74243 4.72318 4.43763C4.57438 4.27683 4.41838 4.12323 4.23838 3.99603C4.05838 3.86883 3.86158 3.77283 3.64558 3.71763C3.61918 3.71043 3.59278 3.70563 3.56638 3.71043C3.53038 3.71523 3.52318 3.72963 3.53998 3.76083C3.57598 3.82323 3.62158 3.87843 3.66718 3.93363C3.78238 4.07763 3.91678 4.20483 4.03678 4.34403C4.21198 4.54563 4.35838 4.77123 4.51198 4.98963C4.77118 5.36163 4.98238 5.76243 5.18398 6.16803C5.27758 6.35763 5.36638 6.54723 5.44798 6.74163C5.51518 6.90003 5.57038 7.06323 5.62798 7.22403C5.79838 7.69443 5.96878 8.16723 6.13918 8.63763C6.20878 8.82723 6.26878 9.01923 6.35038 9.20643C6.35758 9.22563 6.36958 9.24483 6.37918 9.26403C6.39118 9.29043 6.40558 9.28563 6.41998 9.26403C6.44638 9.22083 6.46558 9.17523 6.48238 9.12723C6.59758 8.79843 6.68638 8.46003 6.77518 8.12163C6.96718 7.40163 7.14478 6.67923 7.35598 5.96403C7.57678 5.21763 7.84558 4.48803 8.16718 3.78003C8.37598 3.32403 8.65198 2.90883 8.96158 2.51523C9.25678 2.14323 9.56398 1.78563 9.89998 1.45203C10.2408 1.11123 10.6152 0.81363 11.04 0.58083C11.1648 0.51123 11.2968 0.45603 11.436 0.42243C11.4528 0.41763 11.4696 0.41523 11.4864 0.41283C11.5056 0.41043 11.5272 0.40803 11.5368 0.42483C11.5488 0.44403 11.5392 0.46323 11.5296 0.48003C11.508 0.52083 11.4792 0.55443 11.4504 0.58803C11.3448 0.71043 11.2368 0.83043 11.1312 0.95283C10.3464 1.85283 9.69118 2.83923 9.17038 3.91443C8.90878 4.45203 8.69278 5.00643 8.50318 5.57283C8.19838 6.48723 7.92718 7.40883 7.68478 8.34243C7.50958 9.01923 7.34398 9.70083 7.19998 10.3848C7.10878 10.8168 7.02238 11.2488 6.91678 11.676C6.91438 11.688 6.90958 11.7024 6.90718 11.7144C6.88078 11.8488 6.79678 11.8704 6.70558 11.88C6.65038 11.8848 6.59758 11.8872 6.54238 11.8896C6.49198 11.8944 6.43918 11.892 6.38638 11.892Z" fill="#009B58"/>
</g>
<defs>
<clipPath id="clip0">
<rect width="12" height="12" fill="white"/>
</clipPath>
</defs>
</svg>
