<svg width="208" height="137" viewBox="0 0 208 137" fill="none" xmlns="http://www.w3.org/2000/svg">
<path d="M97.13 2.94417C97.7824 2.00683 98.2951 0.982706 98.8743 -6.65465e-06C100.502 0.801668 102.144 1.65048 103.453 2.9336C105.175 4.50083 106.533 6.51779 108.632 7.6256C112.968 9.9161 118.103 10.3297 122.197 13.1334C123.941 14.3504 125.372 16.0251 126.188 17.9994C124.459 18.3575 122.743 18.7486 121.009 19.0618C124.612 19.8027 128.078 21.8426 129.845 25.1625C125.753 24.2736 121.924 22.1606 117.678 22.0355C117.367 22.3381 117.058 22.6407 116.752 22.9468C117.88 24.0163 119.164 24.9083 120.479 25.7377C124.513 28.4507 128.635 31.0349 132.8 33.5408C135.047 34.7359 137.44 35.7287 139.403 37.388C139.985 37.8642 140.321 38.5513 140.679 39.2001C136.474 39.3147 132.066 39.5164 128.115 37.8175C127.654 38.2434 127.254 38.7271 126.852 39.2067C131.932 41.0101 137.245 42.0589 142.387 43.6604C142.552 44.2273 142.431 44.826 142.431 45.4083C137.58 46.0329 132.695 46.4016 127.882 47.2675C130.622 47.257 133.367 47.7177 135.864 48.8828C140.203 50.8235 143.408 54.4496 147.164 57.2532C147.145 57.8809 147.131 58.5086 147.109 59.1381C145.055 59.6182 142.925 59.7988 140.824 59.5191C139.196 59.2129 137.778 58.2236 136.12 58.025C134.497 58.0756 133.043 58.8962 131.725 59.7728C137.107 61.5136 142.397 63.8873 146.78 67.5239C148.368 68.9361 149.983 70.4906 150.679 72.5604C148.921 72.8542 147.145 73.2577 145.357 72.9811C142.615 72.5375 140.206 71.0628 137.624 70.1325C134.165 68.8736 130.645 67.4125 126.897 67.4768C124.381 67.4874 121.828 67.2909 119.439 66.4439C117.814 66.0527 116.216 65.1378 114.498 65.4911C113.008 65.9276 112.083 67.475 111.945 68.955C111.649 72.1062 112.872 75.1636 114.343 77.8836C115.508 80.1631 117.552 81.7893 119.564 83.2865C121.36 84.5824 122.891 86.2082 124.336 87.883C122.293 88.408 120.051 88.4221 118.101 87.5508C116.103 86.6655 114.199 85.5753 112.159 84.7855C110.78 84.2499 109.29 84.1353 107.884 83.6971C108.507 85.0881 109.056 86.5144 109.629 87.9283C106.97 87.3125 104.49 86.0206 102.473 84.1772C100.716 82.5492 98.6898 81.059 96.2883 80.5983C93.7996 80.0085 91.2435 80.7423 88.9217 81.6312C87.1915 82.2589 85.7357 83.4605 83.983 84.0398C79.5518 85.6325 75.2091 87.4848 70.714 88.9022C72.1746 85.8431 74.9624 83.6971 77.952 82.2571C81.4071 80.5617 85.082 78.5981 86.9444 75.0539C87.8681 73.4123 88.5376 71.2751 87.5425 69.5131C86.5863 68.1151 84.9534 66.898 83.1778 67.1517C77.3569 68.6683 71.7451 71.3081 65.6515 71.5499C63.1368 71.8402 60.6049 71.7045 58.0814 71.7288C58.0554 70.5531 58.0554 69.3761 58.0519 68.2023C62.4395 67.4019 66.8655 66.3985 70.7937 64.2075C72.4979 63.1817 74.3867 62.3937 75.7813 60.933C74.3206 60.8841 72.8336 61.0493 71.4738 61.6109C68.5556 62.8614 65.855 64.7207 62.7074 65.362C59.3579 65.7937 55.979 65.2563 52.7146 64.5031C52.6362 64.03 52.438 63.5658 52.4939 63.0821C52.9128 62.4875 53.5269 62.0822 54.1233 61.6876C60.0658 57.999 66.2237 54.6725 72.4913 51.5803C72.4147 50.7839 72.8895 49.2603 71.6531 49.2673C69.0565 49.7871 66.7695 51.5054 64.0689 51.6759C62.5646 51.7578 61.1406 50.7976 60.4988 49.462C60.2222 48.8797 59.565 47.9979 60.4569 47.6151C63.8288 45.5598 67.1611 43.4014 70.7435 41.7197C72.719 40.7669 74.9518 39.7688 75.9729 37.6906C76.6666 36.4071 76.4649 34.8803 76.0614 33.5408C73.1591 33.9461 70.2374 34.1566 67.3381 34.5879C68.0825 31.9622 70.3294 30.0923 72.7208 28.9814C75.4425 27.778 77.7189 25.8421 80.19 24.2269C81.8718 23.0059 83.828 22.213 85.4577 20.9136C85.8784 20.6114 86.0454 20.1053 86.2889 19.6705C84.9151 19.6216 83.7099 20.3053 82.503 20.8546C82.1744 20.4894 81.8418 20.1278 81.5062 19.7661C82.0942 18.7002 82.736 17.6408 83.6209 16.7889C84.9966 15.4098 86.8298 14.6671 88.5046 13.7351C87.9077 13.2149 87.339 12.6621 86.8228 12.0639C89.3428 8.07973 94.4484 6.79265 97.13 2.94417ZM87.8852 18.4896C87.4976 18.7817 87.4381 19.1433 87.7112 19.5714C88.9411 19.7296 90.1581 19.1173 90.892 18.1469C90.9981 17.6496 90.9025 17.147 90.873 16.6497C89.7965 17.121 88.7741 17.7227 87.8852 18.4896ZM103.592 20.3348C104.203 20.6581 104.799 21.1677 105.538 21.0946C106.559 21.1801 107.935 20.4894 107.674 19.2895C106.575 17.7818 103.563 18.2024 103.592 20.3348ZM96.8103 20.0912C96.3143 20.5815 95.624 21.1277 95.8135 21.9174C97.3578 23.0389 99.4831 22.2597 100.864 21.2096C101.676 20.7259 101.433 19.6877 101.499 18.9001C99.8637 18.6477 98.0744 18.9697 96.8103 20.0912ZM108.477 20.0723C108.533 20.3885 108.629 20.6929 108.757 20.9902C109.794 21.4598 110.945 21.7884 112.096 21.6875C112.813 21.1713 112.524 20.2427 111.898 19.8062C110.816 19.1644 109.556 19.7036 108.477 20.0723ZM92.8398 21.3417C91.0069 22.5156 89.1688 23.8978 88.0557 25.8126C87.5932 26.5641 87.9636 27.3552 88.6781 27.7569C90.5162 26.9812 92.1165 25.7708 93.6626 24.526C94.2449 24.037 94.8572 23.4111 94.8206 22.5852C94.9787 21.5884 93.6956 20.5784 92.8398 21.3417ZM96.9891 29.1951C96.4292 29.4682 96.4777 30.1465 96.3596 30.6627C98.4466 31.3605 100.927 30.8821 102.657 29.5536C103.568 28.7273 102.657 27.3398 101.578 27.4093C99.9368 27.6195 98.3872 28.3326 96.9891 29.1951ZM103.94 30.9812C105.512 31.1918 107.3 30.8473 108.429 29.6629C108.888 29.303 108.684 28.7013 108.437 28.2908C108.138 27.4177 107.039 27.5952 106.326 27.6908C104.94 28.1811 104.375 29.7082 103.94 30.9812ZM86.6122 29.4316C86.0295 29.7117 85.1882 30.0544 85.2366 30.8297C85.0679 31.9723 86.0713 33.0087 87.1184 33.2611C88.3253 33.4682 89.2278 32.4784 89.8991 31.623C90.3303 31.1292 90.4418 30.343 90.1546 29.7567C89.1807 28.962 87.7531 29.218 86.6122 29.4316ZM109.677 30.8438C109.307 31.7917 110.307 32.4454 111.044 32.7845C112.694 33.4369 114.594 33.4818 116.28 32.929C116.277 32.0943 116.346 31.1587 115.712 30.5081C114.262 28.5498 111.037 29.0264 109.677 30.8438ZM78.0246 32.4418C77.9815 34.1897 79.117 35.6142 80.0716 36.9687C82.0453 36.9008 83.7271 35.4922 84.9446 34.0452C84.7204 33.0383 84.2037 32.0613 83.4769 31.3204C81.5987 31.1063 79.7482 31.7706 78.0246 32.4418ZM120.717 35.2155C120.828 35.7617 120.555 36.5515 121.157 36.8713C122.087 37.4695 123.212 37.6607 124.299 37.7756C124.964 37.8245 125.904 37.8245 126.129 37.0347C125.127 35.1411 122.661 34.4108 120.717 35.2155ZM97.0781 38.7165C96.4883 38.8975 95.6465 39.2592 95.7544 40.0084C95.624 41.1109 96.749 41.7928 97.6467 42.1025C99.2743 42.5196 100.177 39.9269 98.9492 39.0085C98.4202 38.6103 97.7022 38.4592 97.0781 38.7165ZM89.833 40.3947C89.8731 40.9374 89.7511 41.5285 89.9947 42.0364C91.0034 42.7006 92.231 42.9407 93.4084 43.1112C94.5074 42.7632 93.5441 41.7492 93.0609 41.273C92.2539 40.3582 91.0034 39.9045 89.833 40.3947ZM100.18 43.2534C100.97 44.8986 102.966 45.7109 104.726 45.5197C104.773 44.0763 105.088 42.3875 104.062 41.1911C102.782 39.4433 99.443 41.1739 100.18 43.2534ZM74.2687 47.1649C74.3625 48.1978 74.94 49.1193 75.7222 49.777C77.578 49.9421 79.4232 49.3924 81.1604 48.7872C82.4629 48.271 84.0975 47.4847 84.0975 45.8518C83.3584 45.6814 82.6175 45.3946 81.8471 45.5197C79.2752 45.8294 76.7415 46.4223 74.2687 47.1649ZM115.995 52.1785C115.306 52.3961 114.988 53.0339 114.755 53.6602C116.64 54.7385 118.863 54.9557 120.992 54.9852C122.023 54.9663 123.24 54.9923 124.012 54.1959C124.367 53.4325 124.186 52.4586 123.44 52.0045C121.227 50.3958 118.301 51.2187 115.995 52.1785ZM126.141 53.4255C125.624 53.6391 125.134 53.9333 124.736 54.328C124.612 54.9037 124.72 55.5314 125.092 55.9992C126.222 57.7294 128.487 58.7328 130.511 58.147C131.758 57.7818 132.501 56.1142 131.645 55.0376C130.464 53.288 128.056 52.9678 126.141 53.4255ZM84.7204 55.1209C85.4071 57.5312 86.8889 59.7173 88.7636 61.3643C89.9912 60.5119 90.2471 58.8407 90.1841 57.4497C89.7339 55.5208 87.9011 54.2254 86.0991 53.695C85.2366 53.3924 84.4209 54.295 84.7204 55.1209ZM98.0515 55.4495C97.0781 56.4498 97.4622 58.147 98.2379 59.161C99.3509 60.7626 102.726 60.0547 102.377 57.8514C101.752 56.2252 99.7716 54.8601 98.0515 55.4495ZM93.2309 55.9296C91.7579 57.2286 92.7913 60.9727 95.0501 60.1538C95.965 59.0649 95.41 57.4686 94.7144 56.4097C94.37 55.9816 93.6886 55.2253 93.2309 55.9296Z" fill="#009B58"/>
<path d="M16.6202 102.085H11.7278C11.4613 101.102 10.8319 100.61 9.83945 100.61C8.43432 100.61 7.18468 101.391 6.09141 102.953C5.099 104.368 4.60302 105.819 4.60302 107.308C4.60302 108.19 4.83251 108.897 5.29193 109.43C5.76941 109.99 6.44467 110.271 7.3177 110.271C9.24745 110.271 10.731 109.113 11.7692 106.798H16.3031C14.098 112.43 10.7125 115.245 6.14647 115.245C4.18016 115.245 2.64597 114.58 1.54344 113.248C0.51448 112.007 0 110.386 0 108.382C0 106.508 0.50523 104.63 1.51613 102.746C2.4711 100.964 3.72074 99.4616 5.26418 98.2397C6.93669 96.9165 8.64531 96.2549 10.3909 96.2549C14.0936 96.2549 16.1696 98.1983 16.6202 102.085Z" fill="#E14046"/>
<path d="M25.3713 106.302C25.289 105.282 24.7282 104.772 23.69 104.772C22.8262 104.772 21.9902 105.282 21.1819 106.302H25.3713ZM28.4719 105.985C28.4719 106.526 28.4217 107.271 28.3208 108.217H20.3688C20.2952 108.429 20.2582 108.672 20.2582 108.948C20.2582 109.379 20.4653 109.733 20.8784 110.008C21.2462 110.257 21.655 110.381 22.1052 110.381C22.9135 110.381 23.6535 109.986 24.3239 109.195H27.7966C27.1993 110.638 26.299 111.8 25.0956 112.682C23.8464 113.601 22.4589 114.061 20.9339 114.061C19.583 114.061 18.506 113.657 17.7021 112.848C16.8978 112.039 16.4961 110.955 16.4961 109.595C16.4961 107.584 17.2771 105.75 18.839 104.097C20.401 102.443 22.1831 101.616 24.1865 101.616C27.0434 101.616 28.4719 103.072 28.4719 105.985Z" fill="#E14046"/>
<path d="M36.1756 106.145C36.1756 105.184 35.7021 104.703 34.7564 104.703C34.0856 104.703 33.4927 104.987 32.9782 105.555C32.4637 106.122 32.2069 106.745 32.2069 107.423C32.2069 108.43 32.7073 108.934 33.7089 108.934C34.4164 108.934 35.0132 108.641 35.5004 108.055C35.9505 107.506 36.1756 106.869 36.1756 106.145ZM44.2928 96.9991C41.9318 102.162 40.2135 107.758 39.1383 113.785H34.0807L34.3291 113.164C33.4654 113.634 32.5791 113.867 31.6691 113.867C30.4291 113.867 29.4596 113.44 28.7615 112.586C28.1091 111.796 27.7827 110.767 27.7827 109.499C27.7827 107.57 28.4166 105.801 29.6847 104.193C31.0445 102.475 32.6566 101.616 34.5216 101.616C35.9184 101.616 36.9289 102.071 37.5535 102.98C38.0776 101.152 38.6287 99.1584 39.2079 96.9991H44.2928Z" fill="#E14046"/>
<path d="M49.4198 106.145C49.4198 105.184 48.9463 104.703 48.0001 104.703C47.3297 104.703 46.7364 104.987 46.2223 105.555C45.7078 106.123 45.4502 106.745 45.4502 107.423C45.4502 108.43 45.951 108.934 46.9526 108.934C47.6601 108.934 48.2573 108.641 48.7441 108.055C49.1942 107.506 49.4198 106.869 49.4198 106.145ZM55.7451 101.712C54.1919 105.737 52.9661 109.761 52.0657 113.785H47.4486L47.6552 113.109C46.7641 113.615 45.8501 113.867 44.9128 113.867C43.6724 113.867 42.7033 113.44 42.0052 112.586C41.3528 111.796 41.0269 110.767 41.0269 109.499C41.0269 107.57 41.6607 105.801 42.9289 104.193C44.2877 102.475 45.9003 101.616 47.7658 101.616C49.1348 101.616 50.1316 102.052 50.7566 102.926L51.1288 101.712H55.7451Z" fill="#E14046"/>
<path d="M67.2384 104.786C66.7059 104.52 65.7694 104.386 64.4286 104.386C63.3728 104.386 62.4861 104.689 61.7699 105.295C60.9801 105.967 59.8965 108.722 58.5191 113.564L58.5055 113.566L58.439 113.785H53.8157L57.4809 101.712H59.5208C60.0811 101.474 60.7383 101.354 61.4919 101.354C63.0257 101.354 64.9418 102.498 67.2384 104.786Z" fill="#E14046"/>
<path d="M73.9638 96.9993C73.4212 99.2687 72.8794 100.67 72.3376 101.203C71.6848 101.845 70.2933 102.158 68.1614 102.14L69.8017 96.9993H73.9638Z" fill="#E14046"/>
<path d="M84.2718 104.069C84.2718 104.602 84.0974 105.068 83.7481 105.468C83.3992 105.868 82.9579 106.067 82.4253 106.067C81.9566 106.067 81.4148 105.893 80.7991 105.544C81.1484 105.13 81.3232 104.786 81.3232 104.51C81.3232 104.079 81.0153 103.862 80.3991 103.862C79.5908 103.862 79.1869 104.262 79.1869 105.062C79.1869 105.539 79.508 106.054 80.1515 106.605C81.0885 107.395 81.6853 107.961 81.943 108.3C82.5949 109.136 82.9213 110.142 82.9213 111.318C82.9213 112.65 82.2738 113.767 80.9783 114.667C79.8115 115.476 78.5345 115.88 77.147 115.88C75.7503 115.88 74.4782 115.558 73.3298 114.915C71.9516 114.144 71.2622 113.109 71.2622 111.814C71.2622 110.602 71.7903 109.697 72.8475 109.099C73.3985 108.787 73.9174 108.631 74.405 108.631C75.112 108.631 75.8516 108.897 76.6237 109.43C76.0445 109.715 75.7556 110.188 75.7556 110.85C75.7556 111.75 76.2467 112.2 77.2298 112.2C78.4702 112.2 79.09 111.695 79.09 110.684C79.09 110.096 78.7323 109.559 78.0152 109.072L76.0168 107.721C75.3093 107.114 74.9561 106.371 74.9561 105.489C74.9561 102.88 76.711 101.575 80.2203 101.575C82.9213 101.575 84.2718 102.407 84.2718 104.069Z" fill="#E14046"/>
<path d="M101.774 106.145C101.774 105.184 101.301 104.703 100.355 104.703C99.6843 104.703 99.0887 104.987 98.5703 105.555C98.051 106.122 97.7915 106.745 97.7915 107.423C97.7915 108.43 98.2923 108.934 99.2936 108.934C100.01 108.934 100.608 108.641 101.085 108.055C101.544 107.505 101.774 106.869 101.774 106.145ZM104.93 105.874C104.93 108.07 104.232 109.967 102.835 111.566C101.375 113.229 99.56 114.061 97.392 114.061C96.0322 114.061 94.9526 113.654 94.1531 112.841C93.3537 112.028 92.9546 110.941 92.9546 109.582C92.9546 107.579 93.7373 105.75 95.3041 104.097C96.87 102.443 98.6509 101.616 100.644 101.616C103.501 101.616 104.93 103.035 104.93 105.874Z" fill="#E14046"/>
<path d="M119.952 100.293C119.419 100.027 118.509 99.8937 117.224 99.8937C115.376 99.8937 113.994 100.945 113.075 103.049C113.847 103.028 114.637 102.996 115.445 102.953L114.288 106.757C113.433 106.714 112.602 106.682 111.793 106.66C111.637 107.206 111.476 107.795 111.311 108.424H111.297C109.91 113.422 108.591 116.693 107.342 118.236C106.533 119.228 105.412 119.725 103.979 119.725C102.454 119.725 100.543 118.576 98.2463 116.28C98.7789 116.546 99.6885 116.679 100.975 116.679C102.078 116.679 103.051 116.293 103.896 115.522C104.815 114.676 105.798 112.219 106.846 108.148H106.859L107.3 106.66C106.464 106.679 105.661 106.711 104.889 106.757L106.046 102.953C106.827 102.999 107.64 103.031 108.485 103.049C109.193 101.083 109.836 99.7003 110.415 98.9013C111.407 97.5319 112.675 96.8478 114.219 96.8478C115.744 96.8478 117.655 97.9966 119.952 100.293Z" fill="#E14046"/>
<path d="M131.501 109.981L130.357 113.785H118.574C119.153 112.325 119.604 111.056 119.925 109.981C121.688 104.147 122.943 99.8201 123.687 96.9993H128.773C126.898 101.116 125.437 105.461 124.39 110.036H125.768C127.229 110.036 129.14 110.018 131.501 109.981Z" fill="#E14046"/>
<path d="M141.685 106.302C141.602 105.282 141.041 104.772 140.004 104.772C139.14 104.772 138.304 105.282 137.495 106.302H141.685ZM144.785 105.985C144.785 106.526 144.735 107.271 144.634 108.217H136.683C136.609 108.429 136.572 108.672 136.572 108.948C136.572 109.379 136.779 109.733 137.192 110.008C137.559 110.257 137.968 110.381 138.419 110.381C139.227 110.381 139.967 109.986 140.638 109.195H144.111C143.513 110.638 142.612 111.8 141.409 112.682C140.159 113.601 138.772 114.061 137.247 114.061C135.897 114.061 134.82 113.657 134.016 112.848C133.211 112.039 132.81 110.955 132.81 109.595C132.81 107.584 133.591 105.75 135.153 104.097C136.714 102.443 138.497 101.616 140.5 101.616C143.357 101.616 144.785 103.072 144.785 105.985Z" fill="#E14046"/>
<path d="M154.047 106.145C154.047 105.184 153.574 104.703 152.628 104.703C151.957 104.703 151.364 104.987 150.85 105.555C150.335 106.122 150.078 106.745 150.078 107.423C150.078 108.43 150.579 108.934 151.58 108.934C152.288 108.934 152.885 108.641 153.372 108.055C153.821 107.506 154.047 106.869 154.047 106.145ZM157.92 105.916C157.92 107.909 157.327 109.697 156.142 111.277C154.846 113.004 153.229 113.867 151.291 113.867C150.078 113.867 149.141 113.472 148.479 112.682L148.273 113.785H143.215C144.621 110.146 146.325 104.552 148.328 96.9991H153.413C152.605 98.7725 151.879 100.578 151.236 102.416C152.081 101.883 153.05 101.616 154.143 101.616C156.661 101.616 157.92 103.049 157.92 105.916Z" fill="#E14046"/>
<path d="M165.692 106.145C165.692 105.184 165.219 104.703 164.273 104.703C163.602 104.703 163.009 104.987 162.495 105.555C161.98 106.123 161.723 106.745 161.723 107.423C161.723 108.43 162.223 108.934 163.225 108.934C163.932 108.934 164.53 108.641 165.017 108.055C165.467 107.506 165.692 106.869 165.692 106.145ZM172.018 101.712C170.464 105.737 169.239 109.761 168.338 113.785H163.721L163.928 113.109C163.037 113.615 162.123 113.867 161.185 113.867C159.945 113.867 158.976 113.44 158.278 112.586C157.625 111.796 157.299 110.767 157.299 109.499C157.299 107.57 157.933 105.801 159.201 104.193C160.56 102.475 162.173 101.616 164.038 101.616C165.407 101.616 166.404 102.052 167.029 102.926L167.401 101.712H172.018Z" fill="#E14046"/>
<path d="M183.842 103.917C183.842 105.057 183.553 106.715 182.974 108.893C182.716 109.867 182.225 111.497 181.499 113.785H177.872L179.975 106.855C180.063 106.552 180.107 106.298 180.107 106.096C180.107 105.388 179.695 105.034 178.872 105.034C177.874 105.034 177.238 105.494 176.963 106.415L174.711 113.785H170.088L173.754 101.712H178.384L178.109 102.595C178.881 101.933 179.878 101.602 181.1 101.602C182.928 101.602 183.842 102.374 183.842 103.917Z" fill="#E14046"/>
<path d="M192.358 106.145C192.358 105.184 191.885 104.703 190.939 104.703C190.268 104.703 189.673 104.987 189.154 105.555C188.635 106.122 188.375 106.745 188.375 107.423C188.375 108.43 188.876 108.934 189.878 108.934C190.594 108.934 191.191 108.641 191.669 108.055C192.128 107.505 192.358 106.869 192.358 106.145ZM195.514 105.874C195.514 108.07 194.816 109.967 193.419 111.566C191.959 113.229 190.144 114.061 187.976 114.061C186.616 114.061 185.537 113.654 184.737 112.841C183.938 112.028 183.539 110.941 183.539 109.582C183.539 107.579 184.321 105.75 185.888 104.097C187.454 102.443 189.235 101.616 191.228 101.616C194.085 101.616 195.514 103.035 195.514 105.874Z" fill="#E14046"/>
<path d="M208 103.917C208 105.057 207.711 106.715 207.132 108.893C206.874 109.867 206.383 111.497 205.657 113.785H202.03L204.133 106.855C204.221 106.552 204.265 106.298 204.265 106.096C204.265 105.388 203.853 105.034 203.03 105.034C202.032 105.034 201.396 105.494 201.121 106.415L198.869 113.785H194.246L197.912 101.712H202.542L202.267 102.595C203.039 101.933 204.036 101.602 205.257 101.602C207.086 101.602 208 102.374 208 103.917Z" fill="#E14046"/>
<path d="M135.718 130.665C136.229 130.665 136.686 130.555 137.087 130.334C137.572 130.061 137.815 129.69 137.815 129.222V128.72C137.815 128.274 137.631 127.93 137.262 127.688C136.894 127.445 136.381 127.324 135.724 127.324H135.36V130.658C135.453 130.663 135.572 130.665 135.718 130.665ZM133.945 126.133C134.72 126.097 135.36 126.08 135.863 126.08C136.899 126.08 137.72 126.334 138.324 126.841C138.928 127.348 139.23 128.047 139.23 128.938C139.23 129.556 139.072 130.063 138.755 130.46C138.437 130.857 137.91 131.197 137.173 131.479C137.482 131.867 138.408 133.173 139.952 135.396L138.494 135.76L135.36 131.049V135.508L133.945 135.68V126.133Z" fill="#404041"/>
<path d="M140.402 126.093H145.715L146.039 127.39H141.864V130.043H145.239V131.294H141.864V134.284H146.403L145.973 135.588H140.402V126.093Z" fill="#404041"/>
<path d="M147.66 133.338C148.19 134.088 148.827 134.463 149.572 134.463C150.005 134.463 150.376 134.327 150.687 134.057C150.998 133.786 151.154 133.453 151.154 133.057C151.154 132.45 150.782 131.97 150.039 131.618C149.916 131.56 149.231 131.243 147.984 130.667C147.243 130.177 146.873 129.478 146.873 128.569C146.873 127.845 147.142 127.222 147.681 126.699C148.218 126.175 148.858 125.914 149.598 125.914C150.274 125.914 150.829 126.017 151.263 126.222C151.697 126.427 152.104 126.774 152.484 127.264L151.524 128.243C151.149 127.851 150.896 127.608 150.763 127.516C150.486 127.322 150.15 127.225 149.757 127.225C149.343 127.225 148.998 127.35 148.722 127.602C148.447 127.853 148.309 128.171 148.309 128.554C148.309 129.066 148.679 129.487 149.42 129.818C150.682 130.382 151.368 130.703 151.478 130.778C152.219 131.298 152.59 132.048 152.59 133.027C152.59 133.808 152.288 134.467 151.683 135.006C151.079 135.544 150.351 135.813 149.499 135.813C148.873 135.813 148.326 135.667 147.858 135.376C147.492 135.147 147.074 134.756 146.602 134.205L147.66 133.338Z" fill="#404041"/>
<path d="M152.967 126.073H159.12V127.376H156.679V135.495L155.229 135.68V127.376H152.504L152.967 126.073Z" fill="#404041"/>
<path d="M164.1 131.227L162.777 128.303L161.394 131.227H164.1ZM162.816 125.63C164.568 128.969 166.246 132.258 167.852 135.495L166.396 135.859L164.725 132.498H160.8L159.134 135.86L157.775 135.495L162.816 125.63Z" fill="#404041"/>
<path d="M168.487 126.212L169.915 126.007V132.2C169.915 133.722 170.58 134.483 171.907 134.483C172.573 134.483 173.101 134.32 173.488 133.996C173.876 133.672 174.071 133.228 174.071 132.663V126.239L175.54 126.007V132.213C175.54 133.364 175.24 134.247 174.64 134.86C174.04 135.473 173.169 135.779 172.027 135.779C169.666 135.779 168.487 134.56 168.487 132.12V126.212Z" fill="#404041"/>
<path d="M178.736 130.665C179.247 130.665 179.704 130.555 180.105 130.334C180.59 130.061 180.833 129.69 180.833 129.222V128.72C180.833 128.274 180.649 127.93 180.281 127.688C179.912 127.445 179.399 127.324 178.742 127.324H178.379V130.658C178.471 130.663 178.59 130.665 178.736 130.665ZM176.963 126.133C177.739 126.097 178.379 126.08 178.882 126.08C179.918 126.08 180.738 126.334 181.343 126.841C181.947 127.348 182.249 128.047 182.249 128.938C182.249 129.556 182.09 130.063 181.773 130.46C181.455 130.857 180.928 131.197 180.191 131.479C180.5 131.867 181.426 133.173 182.97 135.396L181.513 135.76L178.379 131.049V135.508L176.963 135.68V126.133Z" fill="#404041"/>
<path d="M188.628 131.227L187.304 128.303L185.921 131.227H188.628ZM187.344 125.63C189.095 128.969 190.774 132.258 192.379 135.495L190.923 135.859L189.252 132.498H185.327L183.662 135.86L182.302 135.495L187.344 125.63Z" fill="#404041"/>
<path d="M193.014 125.749C194.486 127.266 196.667 129.56 199.558 132.631V126.212L200.848 126.007V136.033L194.357 129.072V135.495L193.014 135.667V125.749Z" fill="#404041"/>
<path d="M201.648 126.073H207.802V127.376H205.36V135.495L203.911 135.68V127.376H201.186L201.648 126.073Z" fill="#404041"/>
<path d="M112.659 119.939H207.89" stroke="#009B58" stroke-width="0.557"/>
<path d="M0.0134277 120.907H95.244" stroke="#009B58" stroke-width="0.557"/>
</svg>
