<svg width="67" height="60" viewBox="0 0 67 60" fill="none" xmlns="http://www.w3.org/2000/svg">
<path fill-rule="evenodd" clip-rule="evenodd" d="M31.2011 0C29.5007 3.64372 28.2861 3.64372 25.1282 6.07287C23.9136 7.28745 21.9703 8.01619 24.3995 9.23077C21.9703 10.4453 20.7557 10.9312 19.5412 13.3603L20.2699 14.0891C20.2699 14.0891 22.4561 12.8745 22.6991 13.3603C23.1849 13.8462 19.5412 15.7895 19.0553 16.0324C18.8124 16.2753 16.6262 17.7328 16.6262 17.7328C13.4683 20.1619 11.7679 19.4332 9.82456 23.3198L15.8974 22.5911C17.112 26.9636 12.9825 27.4494 9.82456 29.3927L4.96626 32.3077C6.18084 36.6802 9.82456 34.251 12.9825 33.0364L13.4683 33.5223V34.7368L7.39541 37.8947C7.39541 37.8947 0.107962 42.0243 0.107962 42.2672C-0.134953 42.5101 0.107962 43.4818 0.107962 43.4818C2.53711 43.9676 6.18084 44.6964 8.60999 43.4818C11.7679 42.2672 12.2537 41.0526 15.8974 41.0526C11.7679 43.9676 8.60999 45.1822 3.75169 45.9109V48.3401C7.39541 48.3401 9.82456 48.3401 12.9825 47.6113L20.7557 45.1822C22.6991 45.1822 24.3995 47.1255 23.9136 48.8259C21.9703 55.6275 14.6829 54.413 12.2537 60L21.9703 56.3563C24.3995 54.8988 27.0715 53.6842 29.9865 54.413C33.6302 55.6275 33.6302 58.0567 38.4885 59.2713L37.274 56.3563C38.4885 56.8421 39.946 56.8421 41.1606 57.5709C44.0756 58.7854 44.8043 60 48.448 59.2713C45.2901 55.6275 44.8043 56.3563 42.3752 53.6842C39.946 50.0405 38.4885 44.6964 42.3752 43.9676L46.5047 45.1822C50.8772 45.9109 50.8772 44.6964 56.9501 47.1255C60.5938 48.3401 61.8084 50.0405 66.1808 48.8259C64.2375 44.6964 57.6788 41.5385 53.3063 40.3239C58.1646 37.166 56.9501 41.5385 63.7517 39.8381V38.6235C58.8934 34.7368 56.9501 31.8219 50.1484 31.8219L60.5938 30.6073V29.3927C60.5938 29.3927 50.3914 26.7206 50.1484 26.4777C50.1484 26.2348 50.3914 25.749 51.1201 25.5061C53.0634 26.7206 58.8934 26.4777 59.3792 26.4777C59.1363 25.0202 56.4642 23.8057 54.0351 22.5911C54.0351 22.5911 43.3468 16.0324 43.3468 15.5466C43.5897 13.8462 47.7193 15.7895 52.0918 17.004C50.8772 14.5749 48.448 13.3603 46.0189 12.8745L49.6626 12.1457C47.2335 6.80162 41.1606 7.28745 37.274 4.8583C34.8448 2.91498 34.8448 1.7004 31.2011 0Z" fill="#009B58"/>
<path fill-rule="evenodd" clip-rule="evenodd" d="M24.6424 40.8097C25.1282 39.3522 25.614 37.8947 22.9419 36.6802C20.2699 35.4656 24.3994 41.7814 24.6424 40.8097Z" fill="white" stroke="white" stroke-linecap="round" stroke-linejoin="round"/>
<path fill-rule="evenodd" clip-rule="evenodd" d="M27.8003 37.8947C27.3145 37.8947 27.0715 39.838 28.0432 40.3239C29.2578 40.5668 28.2861 37.8947 27.8003 37.8947Z" fill="white" stroke="white" stroke-linecap="round" stroke-linejoin="round"/>
<path fill-rule="evenodd" clip-rule="evenodd" d="M30.9581 37.6518C30.4723 37.6518 30.4723 40.5668 32.4156 40.081C34.3589 39.5951 32.4156 37.4089 30.9581 37.6518Z" fill="white" stroke="white" stroke-linecap="round" stroke-linejoin="round"/>
<path fill-rule="evenodd" clip-rule="evenodd" d="M34.8448 30.3644C35.0877 29.6356 34.8448 26.7206 32.9015 27.9352C31.2011 29.1498 34.1161 30.6073 34.8448 30.3644Z" fill="white" stroke="white" stroke-linecap="round" stroke-linejoin="round"/>
<path fill-rule="evenodd" clip-rule="evenodd" d="M30.9582 27.9352C31.444 27.6923 31.6869 25.9919 29.9865 26.4778C28.529 26.9636 30.4723 28.4211 30.9582 27.9352Z" fill="white" stroke="white" stroke-linecap="round" stroke-linejoin="round"/>
<path fill-rule="evenodd" clip-rule="evenodd" d="M27.5573 28.6639C27.5573 28.6639 26.5857 27.2065 25.614 27.4494C24.6423 28.421 27.5573 28.6639 27.5573 28.6639Z" fill="white" stroke="white" stroke-linecap="round" stroke-linejoin="round"/>
<path fill-rule="evenodd" clip-rule="evenodd" d="M15.8974 33.2794C16.3833 33.2794 19.7841 32.7935 20.7557 31.579C21.9703 30.1215 14.9258 32.0648 14.9258 32.0648C14.9258 32.0648 15.6545 33.2794 15.8974 33.2794Z" fill="white" stroke="white" stroke-linecap="round" stroke-linejoin="round"/>
<path fill-rule="evenodd" clip-rule="evenodd" d="M49.1768 25.0202C49.4197 24.7773 47.4764 23.3198 46.2618 24.0486C46.0189 25.0202 49.1768 25.2632 49.1768 25.0202Z" fill="white" stroke="white" stroke-linecap="round" stroke-linejoin="round"/>
<path fill-rule="evenodd" clip-rule="evenodd" d="M42.6181 21.8623C42.861 21.3765 41.8893 19.1903 39.4602 20.4048C37.031 21.6194 41.8893 22.5911 42.6181 21.8623Z" fill="white" stroke="white" stroke-linecap="round" stroke-linejoin="round"/>
<path fill-rule="evenodd" clip-rule="evenodd" d="M35.0877 20.6477C35.0877 20.6477 35.5735 18.7044 37.031 18.9473C38.7314 20.1619 35.0877 20.6477 35.0877 20.6477Z" fill="white" stroke="white" stroke-linecap="round" stroke-linejoin="round"/>
<path fill-rule="evenodd" clip-rule="evenodd" d="M33.6302 19.1903C33.3873 18.4615 31.9298 18.9474 30.2294 19.919C28.529 21.1336 34.1161 20.4049 33.6302 19.1903Z" fill="white" stroke="white" stroke-linecap="round" stroke-linejoin="round"/>
<path fill-rule="evenodd" clip-rule="evenodd" d="M38.0027 13.8462C38.0027 13.8462 39.4602 13.1174 39.946 13.8462C40.6748 14.8178 38.0027 13.8462 38.0027 13.8462Z" fill="white" stroke="white" stroke-linecap="round" stroke-linejoin="round"/>
<path fill-rule="evenodd" clip-rule="evenodd" d="M36.7881 13.1174C36.5452 12.6316 34.8448 12.6316 34.8448 13.3603C34.6019 14.0891 37.031 14.0891 36.7881 13.1174Z" fill="white" stroke="white" stroke-linecap="round" stroke-linejoin="round"/>
<path fill-rule="evenodd" clip-rule="evenodd" d="M32.6586 13.1174C32.4157 12.8745 30.2294 13.1174 29.5007 14.5749C30.4723 15.3036 33.1444 14.0891 32.6586 13.1174Z" fill="white" stroke="white" stroke-linecap="round" stroke-linejoin="round"/>
<path fill-rule="evenodd" clip-rule="evenodd" d="M27.5574 14.5749C27.5574 14.5749 24.3995 16.5182 24.1566 17.9757C24.1566 19.1903 28.0432 15.7895 28.0432 15.7895C28.0432 15.7895 28.529 14.5749 27.5574 14.5749Z" fill="white" stroke="white" stroke-linecap="round" stroke-linejoin="round"/>
<path fill-rule="evenodd" clip-rule="evenodd" d="M23.9136 12.8745C24.1566 12.6316 25.614 11.6599 25.614 11.6599C25.857 12.1457 24.3995 13.1174 23.9136 12.8745Z" fill="white" stroke="white" stroke-linecap="round" stroke-linejoin="round"/>
<path fill-rule="evenodd" clip-rule="evenodd" d="M25.1282 20.4049C25.1282 19.6761 21.2415 19.919 22.699 21.6194C23.9136 23.0769 25.3711 20.6478 25.1282 20.4049Z" fill="white" stroke="white" stroke-linecap="round" stroke-linejoin="round"/>
<path fill-rule="evenodd" clip-rule="evenodd" d="M21.4845 22.834C21.2416 22.5911 20.9987 21.3765 20.5128 21.3765C20.027 21.3765 17.8408 21.8624 17.5979 22.1053C17.3549 22.5911 18.5695 24.5344 18.8124 24.5344C19.2983 24.7773 21.4845 23.0769 21.4845 22.834Z" fill="white" stroke="white" stroke-linecap="round" stroke-linejoin="round"/>
<path fill-rule="evenodd" clip-rule="evenodd" d="M42.3751 35.9514C42.3751 35.4656 46.2618 34.0081 47.7193 35.4656C49.4197 37.6518 42.1322 36.4372 42.3751 35.9514Z" fill="white" stroke="white" stroke-linecap="round" stroke-linejoin="round"/>
<path fill-rule="evenodd" clip-rule="evenodd" d="M53.0635 38.3806C54.0351 36.9231 50.3914 35.2227 48.9339 36.9231C49.4197 38.8664 52.3347 39.5952 53.0635 38.3806Z" fill="white" stroke="white" stroke-linecap="round" stroke-linejoin="round"/>
</svg>
